<?xml version="1.0"?>


<svg xmlns="http://www.w3.org/2000/svg" xml:space="preserve" width="275.171mm" height="280.307mm" version="1.1" style="shape-rendering:geometricPrecision; text-rendering:geometricPrecision; image-rendering:optimizeQuality; fill-rule:evenodd; clip-rule:evenodd" viewBox="0 0 2244.37 2286.26" xmlns:xlink="http://www.w3.org/1999/xlink" xmlns:xodm="http://www.corel.com/coreldraw/odm/2003">
 <defs>
  
 <linearGradient id="stellar" gradientUnits="userSpaceOnUse" x1="0" y1="0" x2="2244" y2="2286"><stop offset="0" stop-color="#C5BBFF"></stop><stop offset="0.55" stop-color="#8E7BFF"></stop><stop offset="1" stop-color="#5FE3C8"></stop></linearGradient></defs>
 <g id="Camada_x0020_1">
  <metadata id="CorelCorpID_0Corel-Layer"></metadata>
  <g id="_2145469547712">
   <path fill="url(#stellar)" d="M329.44 2002.44c-5.6,5.95 -17.88,19.96 -17.65,27.99 0.22,7.77 16.22,18.94 21.67,22.48 37.34,24.24 59.22,64.88 61.27,109.17 1.9,40.84 20.05,71.92 45.08,102.83 3.12,3.85 11.8,14.11 18.33,19.4 2.91,-4.36 6.11,-10.39 7.54,-13 6.98,-12.76 13.71,-25.27 22.85,-36.67 105.14,-131.13 265.87,-215.07 423.31,-265.82 200.91,-64.76 421.73,-85.26 631.97,-78.14 3.19,0.11 6.38,0.21 9.57,0.31 10.37,-41.27 23.16,-85.45 37.26,-130.78 -90.75,-13.5 -186.04,-17.06 -277.53,-17.82 -44.46,-0.37 -89.07,-0.89 -133.52,0.27 -38.54,1.01 -76.62,3.68 -114.98,7.54 -239.65,24.17 -550.69,83.91 -735.16,252.23zm1582.59 -100.21c4.83,0.47 9.65,1 14.43,1.59l128.68 16.02c4.63,0.58 15.81,1.27 19.82,-2.12 1.8,-1.53 2.02,-5.37 1.97,-7.46 -0.31,-12.98 -10.43,-28.92 -22.89,-33.62l-156.83 -59.22c-0.77,31.84 1.72,53.48 14.82,84.8z"></path>
   <path fill="url(#stellar)" d="M1461.29 1996.06c-201.01,32.52 -333.65,70.66 -380.42,112.33 61.8,-10.15 120.86,-16.59 166.56,-13.52 1.69,0.11 3,1.48 3.05,3.16 0.05,1.69 -1.18,3.13 -2.86,3.34 -158.51,20.2 -281.51,85.59 -391.26,165.86 -88.84,64.97 -184.28,-52.02 -92.28,-118.41 196.3,-141.65 439.33,-203.81 697.24,-159.23 1.59,0.27 2.72,1.63 2.71,3.24 -0.01,1.61 -1.16,2.96 -2.75,3.21z"></path>
   <path fill="url(#stellar)" d="M2188.48 1143.33c-88.87,116.79 -151.29,264.21 -179.67,425.45 -0.28,1.59 -1.64,2.72 -3.25,2.7 -1.61,-0.02 -2.94,-1.16 -3.2,-2.75 -25.06,-154.46 13.36,-370.78 182.43,-430.48 1.38,-0.49 2.86,-0.03 3.73,1.15 0.87,1.19 0.86,2.75 -0.03,3.92z"></path>
   <path fill="url(#stellar)" d="M2029.67 572.75c-28.88,18.1 -51.44,44.46 -41.64,75.32 0.37,1.18 1.3,2 2.51,2.23 1.22,0.23 2.38,-0.2 3.15,-1.16 22.84,-28.27 25.78,-40.84 40.67,-72.21 0.63,-1.33 0.32,-2.87 -0.78,-3.85 -1.1,-0.98 -2.66,-1.11 -3.91,-0.33z"></path>
   <path fill="url(#stellar)" d="M102.64 1361.02c-70.31,74.4 -114.59,177.44 -99.79,244.05 0.29,1.3 1.27,2.25 2.58,2.5 1.31,0.25 2.57,-0.27 3.32,-1.38 51.69,-76.43 70.61,-136.41 99.42,-242.06 0.4,-1.47 -0.23,-2.97 -1.55,-3.71 -1.33,-0.75 -2.94,-0.5 -3.98,0.6z"></path>
   <path fill="url(#stellar)" d="M787.4 1633.9c-104.4,-91.6 -216.69,-226.61 -172.82,-262.1 24.22,-27.13 157.99,150.57 178.19,259.04 0.26,1.39 -0.37,2.73 -1.6,3.44 -1.23,0.7 -2.71,0.56 -3.78,-0.38z"></path>
   <path fill="url(#stellar)" d="M195.95 2002.5c9.87,-4.47 29.3,-29.62 34.22,-36.26 68.4,-92.27 159.39,-183.92 260.73,-239.64 13.54,-7.44 27.43,-18.84 34.75,-32.72 1.33,-2.52 5.64,-12.89 3.54,-15.69 -0.66,-0.68 -3.53,-1.05 -4.36,-1.11 -6.42,-0.47 -14.29,1.67 -20.28,3.77 -23.31,8.16 -48.51,9.74 -68.43,-7.08 -19.13,-16.16 -26.05,-43.87 -29.19,-67.65l-0.15 -1.11 -0.02 -1.12c-1.09,-73.27 7.72,-148.07 20.2,-220.17 16.72,-96.54 40.96,-192.42 68.3,-286.46l2.47 -8.5 298.94 -135.45 25.72 -11.66c-8.67,16.52 -17.34,33.05 -26,49.57 -32.9,62.73 -69.12,126.75 -92.14,194.6 -33.78,99.56 -19.64,62.75 18.67,2.37 39.59,-62.39 82.16,-122.6 133.81,-176.19l73.81 -78.2c31.5,-33.37 35.86,-54.39 0.82,-88.91 -20.69,-20.39 -32.15,-47.44 -35.57,-76.06 -0.8,-6.72 -4.75,-34.75 -10.4,-40.43 -6.84,0.28 -27.15,14.37 -32.07,17.8 -87.71,61.31 -189.49,87.55 -289.46,120.79l-36.42 12.11 12.08 -36.43c27.26,-82.2 43.74,-167.88 77.17,-248.05 12.72,-30.5 34.13,-52.95 63.99,-67.1 102.54,-48.6 210.12,-81.18 316.49,-119.66l44.22 -16 -20.32 42.41c-23.06,48.13 -46.12,96.27 -69.18,144.4 -7.08,14.77 -17.22,26.06 -31.15,34.68l-4.34 2.68c-2.57,1.59 -9.79,6.22 -13.05,9.54 2.56,4.02 8.78,10.7 10.84,12.96l88.11 96.81c6.32,6.94 13.9,14.21 21.96,19.11 1.43,0.87 4.67,2.65 7.28,3.51 0.12,-0.93 0.18,-1.86 0.19,-2.43 1.91,-57.37 140.09,-256.41 175.57,-306.74 43.16,-61.22 88.38,-122.08 136.26,-179.7 18.7,-22.5 38.08,-44.91 58.61,-65.76 13.16,-13.37 30.05,-29.76 46.42,-39.04 10.26,-5.81 26.34,-16.49 26.98,-29.84 0.66,-13.6 -13.08,-30.2 -21.69,-39.41l-75.49 -80.78c-11.62,-12.43 -24.31,-20.09 -39.27,-8.66 -28.06,21.43 -59.13,40.81 -89.44,58.89 -42.51,25.35 -86.16,49.05 -130.2,71.63 -109.32,56.06 -223.12,106.34 -338.37,148.89 -179.49,66.28 -488.61,159.5 -673.02,79.31 -5.03,-2.19 -18.81,-7.28 -23.48,-1.59 -6.51,7.95 -2.51,28.08 -0.04,36.75 23.07,81 70.76,138.07 123.29,201.31 8.06,9.71 16.61,16.24 28.94,19.19 15.52,3.71 35.27,1.54 50.89,-0.63l88.45 -12.3 -62.97 295.1c-6.46,30.26 -27.58,53.36 -57.14,62.49l-214.57 66.31c-29.37,9.08 -24.67,40.85 -1.03,54.52 50.3,29.1 87.7,58.53 115.17,111.01 1.98,3.78 7.49,14.3 13.13,13.57 9.56,-1.25 25.48,-16.42 31.98,-22.89l49.35 -49.09 -17.12 67.47c-39.79,156.82 -79.58,313.65 -119.37,470.47 -4.58,18.06 -11.25,36.07 -22.83,50.89 -6.02,7.7 -12.65,13.86 -21.06,18.86 -5,2.97 -10.37,5.22 -15.3,8.22 -5.09,3.1 -11.18,8.09 -10.71,14.72 0.61,8.48 9.82,17.09 16.15,21.74 68.3,50.18 112.8,106.43 129.5,191.5 0.77,3.91 3.49,15.74 6.59,20.56z"></path>
   <path fill="url(#stellar)" d="M1431.33 1248.22c-13.98,-17.43 -7.78,-43.68 10.07,-57.12 42.83,-32.26 91.53,-57.36 140.51,-78.86 51.99,-22.83 105.58,-42.15 158.92,-61.56l63.54 -23.12 -41.23 53.59c-112.62,146.39 -238.56,286.57 -396.14,385.61 -36.24,22.78 -84.16,48.28 -127.76,50.85 -33.75,1.99 -62.47,-10.21 -81.06,-38.77 -35.79,-54.99 -23.02,-156.03 -12.01,-217.2 46.42,-257.96 165.62,-471.97 325.58,-676.37 63.28,-80.86 180.56,-216.57 287.98,-232.46 9.08,-1.34 18.05,1.53 24.68,7.88 6.83,6.54 10.22,15.82 8.81,25.22 -18.37,122.4 -79.7,231.83 -137.89,339.06l-6.49 11.96 -40.1 -5.54c-2.19,-0.3 -8.67,-0.88 -11.29,0.14 -0.78,3.3 1.8,10.65 2.96,13.24 2.23,4.95 6.89,12.34 11.59,15.18 18.37,11.11 30.13,24.41 37.36,44.53 2.14,5.94 5.26,12.64 11.99,14.07 9.02,1.91 23.38,-3.13 31.64,-6.4 36.99,-14.63 75.07,-26.27 111.95,-41.03 38.13,-15.26 71.65,-33.39 104.19,-58.65 6.42,-4.98 11.5,-12.39 13.8,-20.19 0.68,-2.32 1.97,-9.11 0.56,-11.57l-14.4 -5.27c-19.5,-7.14 -31.27,-26.54 -28.59,-47.13 12.48,-96.19 45.69,-185.76 109.03,-260.01 21.09,-24.72 30.88,-41.72 8.72,-70.17l-98.46 -126.35 -0.25 -0.36c-53.92,-75.98 -122.95,-76.34 -202.47,-39.11 -336.67,157.61 -558.9,538.82 -698.25,866.98 -35.56,83.74 -66.92,171.72 -86.06,260.79 -14.18,66 -22.45,136.73 -15.04,204.14 12.19,110.82 65.14,192.59 168.1,237.86 10.19,4.48 28.49,6.88 39.54,8.23 22.33,2.73 45.2,3.87 67.69,3.97 39.75,0.18 96.32,-2.85 132.52,-18.44 155.2,-66.84 289.74,-208.55 399.9,-333.3 74.99,-84.92 58.28,-62.46 33.43,19.13 -29.64,97.3 -66.42,192.39 -98.61,288.91 -16.86,50.55 -33.2,101.34 -48.05,152.52 -13.1,45.13 -25.31,91.01 -34.34,137.14 -4.7,24.02 12.85,47.16 28.34,63.46 35.95,37.8 68.61,79.09 92.5,125.65 5.94,11.58 14.25,25.93 23.92,34.85 2.18,2.01 7.2,6.13 10.51,5.88 8.83,-0.67 19.21,-24.55 21.7,-31.22 25.39,-68.05 81.96,-127.49 151.57,-150.42 7.34,-2.42 35.99,-11.87 38.71,-20.53 2.98,-9.48 -12.29,-38.64 -16.49,-46.81 -31.68,-61.59 -33.28,-87.34 -29.8,-154.66 8.44,-163.62 35.05,-324 82.25,-480.95 26.84,-89.23 59.4,-183.56 105.18,-264.96 35.49,-63.09 84.58,-127.36 153.19,-156.27 13.88,-5.85 24.66,-14.79 24.91,-30.66 0.27,-17.01 -10.75,-35.62 -21.15,-48.35l-70.55 -86.35c-1.02,-1.25 -2.47,-1.55 -3.91,-0.82 -85.87,43.75 -177.1,79.4 -267.83,111.7 -101.24,36.04 -203.91,68.33 -306.45,100.42 -49.71,15.56 -98.14,26.73 -149.43,10.14 -5.31,-1.72 -24.85,-7.84 -31.2,-6.32 -1.53,4.3 0.12,15.87 0.77,19.42 12.72,70.25 -17.08,136.12 -49.87,196.27 -12.44,22.81 -12.53,38.68 6.35,57.32 16.06,15.85 36.85,33.33 59.5,46.37 25.6,14.74 48.69,29.65 20.74,-5.19z"></path>
  </g>
 </g>
</svg>